<?xml version="1.0" standalone="no"?>
<!DOCTYPE svg PUBLIC "-//W3C//DTD SVG 20010904//EN"
 "http://www.w3.org/TR/2001/REC-SVG-20010904/DTD/svg10.dtd">
<svg version="1.0" xmlns="http://www.w3.org/2000/svg"
 width="500.000000pt" height="500.000000pt" viewBox="0 0 500.000000 500.000000"
 preserveAspectRatio="xMidYMid meet">

<g transform="translate(0.000000,500.000000) scale(0.100000,-0.100000)"
fill="#000000" stroke="none">
<path d="M1063 3055 c-264 -57 -443 -341 -382 -605 29 -128 143 -276 256 -334
111 -56 243 -71 358 -41 242 63 407 318 365 563 -34 205 -197 375 -399 418
-80 17 -117 17 -198 -1z m200 -175 c16 -32 22 -65 22 -116 0 -75 -8 -94 -113
-285 -47 -85 -59 -144 -42 -207 12 -46 69 -117 101 -127 10 -4 19 -11 19 -17
0 -14 -77 -4 -145 19 -76 25 -168 121 -190 198 -36 123 -1 226 120 356 108
115 133 153 147 221 l12 60 24 -29 c13 -15 33 -48 45 -73z"/>
<path d="M2245 2793 c-36 -9 -87 -55 -106 -97 -21 -46 -25 -139 -8 -183 46
-123 225 -153 302 -52 54 73 59 175 11 257 -38 65 -117 95 -199 75z"/>
<path d="M3289 2777 c-114 -61 -126 -271 -19 -347 59 -42 156 -39 210 7 49 41
64 79 64 164 1 67 -3 81 -27 118 -51 77 -146 101 -228 58z"/>
<path d="M2783 2630 c-95 -63 -54 -231 56 -234 52 -1 92 29 109 81 37 113 -72
214 -165 153z"/>
<path d="M4259 2621 c-53 -53 -43 -61 76 -61 58 0 105 3 105 6 0 3 -5 15 -11
27 -19 38 -51 57 -97 57 -35 0 -49 -6 -73 -29z"/>
</g>
</svg>
